<?xml version="1.0" encoding="UTF-8" standalone="no"?>
<svg xmlns="http://www.w3.org/2000/svg" height="374px" width="411px" version="1.1" xmlns:xlink="http://www.w3.org/1999/xlink" viewBox="0 0 411 374"><!-- Generator: Sketch 42 (36781) - http://www.bohemiancoding.com/sketch -->
 <title>Containers-illustration</title>
 <desc>Created with Sketch.</desc>
 <g id="Homepage" fill-rule="evenodd" fill="none">
  <g id="Desktop-HD" transform="translate(-793 -196)">
   <g id="Yakkety_Yak-Wallpaper_8192x4608_grey_version-(1)" transform="translate(-4 73)">
    <g id="Containers-illustration" transform="translate(797 123)">
     <g id="cloud-bare-metal" fill-rule="nonzero" transform="translate(27 20)">
      <g id="svg2">
       <g id="layer1">
        <path id="path827" fill="#fff" d="m25.646 0.0036091c-2.512 0.05903-4.969 0.74953-7.146 2.0058h-0.002c-6.112 3.5389-8.822 10.833-6.73 17.473-6.7983 1.508-11.761 7.504-11.768 14.568v0.002c0 8.272 6.7276 15 15 15h44c8.272 0 15-6.728 15-15v-0.002c-0.009-7.061-4.969-13.055-11.764-14.564 2.093-6.643-0.621-13.939-6.736-17.477l-0.002-0.0015c-6.129-3.528-13.813-2.2206-18.516 2.9277-2.906-3.1727-6.995-5.0284-11.334-4.9316l-0.002-0.0000209v0.00003zm0.045 2h0.002c4.097-0.0908 7.995 1.7534 10.522 4.9785l0.787 1.0039 0.787-1.0039c3.995-5.0907 11.105-6.4687 16.713-3.2402 5.602 3.2423 7.963 10.09 5.551 16.096l-0.475 1.183 1.262 0.179c6.405 0.916 11.152 6.383 11.16 12.854-0.001 7.191-5.809 12.998-13 12.998h-44c-7.1915 0-13-5.808-13-13 0.0075-6.472 4.7564-11.942 11.164-12.855l1.262-0.18-0.475-1.184c-2.411-6.004-0.05-12.85 5.549-16.094 1.886-1.0881 4.015-1.6845 6.191-1.7359v0.0005z"/>
        <path id="rect1245" fill="#E95420" d="m24.892 34h26.216c4.892 0 4.892 0 4.892 4s0 4-4.892 4h-26.216c-4.892 0-4.892 0-4.892-4s0-4 4.892-4z"/>
        <path id="path848" fill="#E95420" d="m24.892 24h26.216c4.892 0 4.892 0 4.892 4s0 4-4.892 4h-26.216c-4.892 0-4.892 0-4.892-4s0-4 4.892-4z"/>
        <path id="path850" fill="#E95420" d="m24.892 44h26.216c4.892 0 4.892 0 4.892 4s0 4-4.892 4h-26.216c-4.892 0-4.892 0-4.892-4s0-4 4.892-4z"/>
       </g>
      </g>
     </g>
     <g id="private-cloud01" fill-rule="nonzero" transform="translate(17 311)">
      <g id="svg2">
       <g id="path837">
        <path id="path847" fill="#fff" d="m25.646 0.0036091c-2.512 0.05903-4.969 0.74953-7.146 2.0058h-0.002c-6.112 3.5389-8.822 10.833-6.73 17.473-6.7983 1.508-11.761 7.504-11.768 14.568v0.002c0 8.272 6.7276 15 15 15h44c8.272 0 15-6.728 15-15v-0.002c-0.009-7.061-4.969-13.055-11.764-14.564 2.093-6.643-0.621-13.939-6.736-17.477l-0.002-0.0015c-6.129-3.528-13.813-2.2206-18.516 2.9277-2.906-3.1727-6.995-5.0284-11.334-4.9316l-0.002-0.0000209v0.00003zm0.045 2h0.002c4.097-0.0908 7.995 1.7534 10.522 4.9785l0.787 1.0039 0.787-1.0039c3.995-5.0907 11.105-6.4687 16.713-3.2402 5.602 3.2423 7.963 10.09 5.551 16.096l-0.475 1.183 1.262 0.179c6.405 0.916 11.152 6.383 11.16 12.854-0.001 7.191-5.809 12.998-13 12.998h-44c-7.1915 0-13-5.808-13-13 0.0075-6.472 4.7564-11.942 11.164-12.855l1.262-0.18-0.475-1.184c-2.411-6.004-0.05-12.85 5.549-16.094 1.886-1.0881 4.015-1.6845 6.191-1.7359v0.0005z"/>
        <path id="Combined-Shape" fill="#E95420" d="m37 16c-3.493 0-6.284 0.847-8.191 2.674-1.908 1.827-2.809 4.539-2.809 7.906v13.84c0 2.844 0.652 5.212 2 6.982v1.598h1.617c1.855 1.36 4.354 2 7.383 2s5.528-0.64 7.383-2h1.617v-1.598c1.348-1.77 2-4.138 2-6.982v-13.84c0-3.367-0.901-6.079-2.809-7.906-1.907-1.827-4.698-2.674-8.191-2.674zm0 2c3.174 0 5.382 0.751 6.809 2.117 1.426 1.367 2.191 3.443 2.191 6.463v5.42h-18v-5.42c0-3.02 0.765-5.096 2.191-6.463 1.427-1.366 3.635-2.117 6.809-2.117zm-2 20l4-1v9h-4v-8z"/>
       </g>
      </g>
     </g>
     <g id="public-cloud01" transform="translate(337 155)">
      <g id="svg2">
       <g id="layer1">
        <g id="path3219">
         <path id="path863" d="m25.67 0.9512c-2.345 0.0551-4.639 0.6985-6.67 1.8711-6.024 3.4881-8.57 10.873-5.977 17.332-6.8929 0.983-12.016 6.883-12.023 13.846 0 7.732 6.268 14 14 14h19v6.024l15-6.024h10c7.732 0 14-6.268 14-14-0.009-6.96-5.129-12.857-12.02-13.842 2.596-6.462 0.047-13.849-5.98-17.336-6.033-3.4722-13.701-1.9852-17.998 3.4908-2.722-3.473-6.921-5.4598-11.332-5.3613v-0.0003z"/>
         <path id="path865" fill-rule="nonzero" fill="#fff" d="m25.646 0.0036091c-2.512 0.05903-4.969 0.74953-7.146 2.0058h-0.002c-6.112 3.5389-8.822 10.833-6.73 17.473-6.7983 1.508-11.761 7.504-11.768 14.568v0.002c0 8.272 6.7276 15 15 15h18v6.504l16.193-6.504h9.807c8.272 0 15-6.728 15-15v-0.002c-0.009-7.061-4.969-13.055-11.764-14.564 2.093-6.643-0.621-13.939-6.736-17.477l-0.002-0.0015c-6.129-3.528-13.813-2.2206-18.516 2.9277-2.906-3.1727-6.995-5.0284-11.334-4.9316l-0.002-0.0000209v0.00003zm0.045 2h0.002c4.097-0.0908 7.995 1.7534 10.522 4.9785l0.787 1.0039 0.787-1.0039c3.995-5.0907 11.105-6.4687 16.713-3.2402 5.602 3.2423 7.963 10.09 5.551 16.096l-0.475 1.183 1.262 0.179c6.405 0.916 11.152 6.383 11.16 12.854-0.001 7.191-5.809 12.998-13 12.998h-10.193l-13.807 5.545v-5.545h-20c-7.1915 0-13-5.808-13-13 0.0075-6.472 4.7564-11.942 11.164-12.855l1.262-0.18-0.475-1.184c-2.411-6.004-0.05-12.85 5.549-16.094 1.886-1.0881 4.015-1.6845 6.191-1.7359v0.0005z"/>
        </g>
        <polygon id="rect851" fill-rule="nonzero" stroke="#fff" points="24 15 24 48.023 34 48.023 34 20 47.9 14.043" stroke-width="2" fill="#E95420"/>
       </g>
      </g>
     </g>
     <g id="circle" fill="#F7F7F7" fill-rule="nonzero">
      <path id="Fill-10" d="m190.46 2.7752c-0.73 0-1.33-0.5932-1.33-1.3236 0-0.73348 0.6-1.3252 1.33-1.3252 0.75-0.00006 1.35 0.59172 1.35 1.3252 0 0.7304-0.6 1.3236-1.35 1.3236"/>
      <path id="Fill-11" d="m199.44 2.9466c-0.75 0-1.34-0.5933-1.34-1.3222 0-0.73342 0.59-1.3268 1.34-1.3268 0.74 0.00004 1.34 0.59338 1.34 1.3268 0 0.7289-0.6 1.3222-1.34 1.3222"/>
      <path id="Fill-12" d="m208.35 3.5337c-0.74 0-1.34-0.5949-1.34-1.3284 0-0.7319 0.6-1.3252 1.34-1.3252 0.74-0.00003 1.34 0.5933 1.34 1.3252 0 0.7335-0.6 1.3284-1.34 1.3284"/>
      <path id="Fill-13" d="m217.07 4.5365c-0.74-0.1027-1.25-0.7754-1.15-1.4981 0.11-0.7256 0.79-1.2271 1.52-1.1227 0.73 0.1028 1.24 0.774 1.14 1.4997-0.1 0.7226-0.79 1.2255-1.51 1.1211"/>
      <path id="Fill-14" d="m225.91 5.9693c-0.72-0.1043-1.24-0.7756-1.13-1.4982 0.1-0.7257 0.78-1.2286 1.52-1.1243 0.73 0.1043 1.24 0.7756 1.14 1.5012-0.12 0.7227-0.79 1.2241-1.53 1.1213"/>
      <path id="Fill-15" d="m234.65 7.8022c-0.73-0.1043-1.24-0.7771-1.13-1.5028 0.1-0.7257 0.78-1.2287 1.52-1.1228 0.73 0.1028 1.23 0.774 1.13 1.4997-0.11 0.7257-0.79 1.2302-1.52 1.1259"/>
      <path id="Fill-16" d="m242.94 10.221c-0.71-0.212-1.12-0.9502-0.9-1.6495 0.21-0.7023 0.96-1.0979 1.67-0.8861 0.7 0.2102 1.11 0.9484 0.9 1.6508-0.22 0.6988-0.97 1.0958-1.67 0.8848"/>
      <path id="Fill-17" d="m251.47 12.946c-0.71-0.212-1.11-0.951-0.9-1.65 0.22-0.701 0.97-1.099 1.68-0.887 0.7 0.212 1.11 0.95 0.89 1.652-0.21 0.699-0.96 1.095-1.67 0.885"/>
      <path id="Fill-18" d="m259.84 16.052c-0.71-0.212-1.12-0.954-0.9-1.655 0.21-0.702 0.96-1.098 1.67-0.887s1.11 0.95 0.89 1.652c-0.21 0.703-0.96 1.1-1.66 0.89"/>
      <path id="Fill-19" d="m267.88 19.499c-0.67-0.31-0.97-1.097-0.65-1.76 0.31-0.665 1.11-0.951 1.79-0.643 0.66 0.309 0.95 1.096 0.64 1.762-0.31 0.661-1.11 0.947-1.78 0.641"/>
      <path id="Fill-20" d="m275.94 23.395c-0.67-0.308-0.97-1.096-0.66-1.758 0.32-0.664 1.12-0.953 1.79-0.643 0.67 0.308 0.96 1.096 0.65 1.761-0.32 0.662-1.11 0.949-1.78 0.64"/>
      <path id="Fill-21" d="m283.76 27.646c-0.66-0.311-0.95-1.1-0.64-1.764 0.31-0.665 1.1-0.951 1.78-0.643 0.67 0.308 0.97 1.097 0.65 1.762-0.31 0.665-1.11 0.952-1.79 0.645"/>
      <path id="Fill-22" d="m291.37 32.024c-0.63-0.395-0.81-1.214-0.42-1.829 0.41-0.618 1.24-0.798 1.87-0.404 0.61 0.394 0.8 1.213 0.39 1.831-0.39 0.616-1.22 0.794-1.84 0.402"/>
      <path id="Fill-23" d="m298.83 36.944c-0.62-0.394-0.81-1.215-0.41-1.829 0.4-0.618 1.23-0.798 1.85-0.403 0.63 0.392 0.8 1.213 0.41 1.83-0.4 0.615-1.23 0.795-1.85 0.402"/>
      <path id="Fill-24" d="m306.02 42.183c-0.62-0.394-0.81-1.215-0.41-1.833 0.41-0.618 1.23-0.798 1.85-0.402 0.63 0.392 0.81 1.211 0.41 1.829s-1.23 0.799-1.85 0.406"/>
      <path id="Fill-25" d="m312.81 47.666c-0.56-0.478-0.63-1.315-0.14-1.868 0.48-0.555 1.33-0.616 1.89-0.138 0.56 0.476 0.63 1.313 0.14 1.868-0.48 0.553-1.33 0.616-1.89 0.138"/>
      <path id="Fill-26" d="m319.49 53.586c-0.56-0.479-0.63-1.315-0.15-1.868 0.49-0.555 1.34-0.617 1.9-0.139 0.56 0.477 0.62 1.314 0.14 1.869-0.49 0.553-1.34 0.615-1.89 0.138"/>
      <path id="Fill-27" d="m325.85 59.783c-0.56-0.48-0.63-1.317-0.14-1.872 0.48-0.556 1.33-0.616 1.89-0.138 0.57 0.476 0.63 1.313 0.14 1.868-0.48 0.555-1.33 0.618-1.89 0.142"/>
      <path id="Fill-28" d="m331.51 66.228c-0.49-0.555-0.41-1.392 0.14-1.867 0.56-0.478 1.41-0.413 1.9 0.144 0.48 0.554 0.41 1.39-0.15 1.867-0.56 0.475-1.41 0.411-1.89-0.144"/>
      <path id="Fill-29" d="m337.22 73.07c-0.48-0.556-0.42-1.394 0.14-1.869 0.57-0.476 1.41-0.413 1.89 0.144 0.48 0.553 0.42 1.39-0.14 1.868-0.57 0.475-1.41 0.411-1.89-0.143"/>
      <path id="Fill-30" d="m342.57 80.136c-0.49-0.555-0.41-1.393 0.15-1.87 0.56-0.476 1.4-0.412 1.89 0.143 0.48 0.555 0.41 1.391-0.15 1.867-0.56 0.479-1.41 0.415-1.89-0.14"/>
      <path id="Fill-31" d="m347.47 87.325c-0.4-0.618-0.22-1.438 0.41-1.828 0.63-0.394 1.46-0.212 1.85 0.408 0.4 0.615 0.22 1.434-0.41 1.827-0.63 0.392-1.46 0.21-1.85-0.407"/>
      <path id="Fill-32" d="m352.13 94.9c-0.4-0.617-0.21-1.437 0.42-1.833 0.62-0.387 1.44-0.212 1.85 0.415 0.39 0.608 0.21 1.427-0.42 1.824-0.62 0.396-1.45 0.211-1.85-0.406"/>
      <path id="Fill-33" d="m356.42 102.65c-0.41-0.62-0.21-1.44 0.41-1.84 0.62-0.39 1.45-0.21 1.85 0.41 0.39 0.62 0.21 1.44-0.42 1.83-0.62 0.4-1.45 0.21-1.84-0.4"/>
      <path id="Fill-34" d="m359.96 110.56c-0.3-0.66 0.01-1.45 0.68-1.74 0.68-0.3 1.47 0 1.77 0.67s-0.01 1.46-0.68 1.75c-0.69 0.3-1.47-0.01-1.77-0.68"/>
      <path id="Fill-35" d="m363.42 118.74c-0.29-0.67 0.01-1.46 0.68-1.75 0.69-0.29 1.48 0.01 1.77 0.68 0.31 0.67 0 1.45-0.68 1.74-0.67 0.3-1.46 0-1.77-0.67"/>
      <path id="Fill-36" d="m366.49 127.03c-0.3-0.66 0.01-1.45 0.68-1.75 0.69-0.29 1.48 0.01 1.77 0.68 0.31 0.67-0.01 1.45-0.68 1.74-0.68 0.31-1.47 0-1.77-0.67"/>
      <path id="Fill-37" d="m369.08 135.31c-0.19-0.71 0.22-1.43 0.93-1.63s1.46 0.21 1.65 0.91c0.21 0.7-0.21 1.44-0.92 1.63-0.72 0.21-1.46-0.21-1.66-0.91"/>
      <path id="Fill-38" d="m372.26 142.62c-0.2-0.7 0.22-1.44 0.93-1.63 0.71-0.21 1.46 0.21 1.65 0.91 0.21 0.71-0.21 1.44-0.93 1.64-0.71 0.19-1.45-0.22-1.65-0.92"/>
      <path id="Fill-48" d="m372.57 219.23c0.11-0.73 0.78-1.22 1.52-1.12 0.73 0.1 1.24 0.77 1.13 1.5-0.1 0.72-0.78 1.23-1.52 1.12-0.73-0.11-1.24-0.78-1.13-1.5"/>
      <path id="Fill-49" d="m370.71 227.86c0.1-0.71 0.79-1.22 1.52-1.12 0.74 0.11 1.25 0.78 1.14 1.5-0.1 0.73-0.79 1.24-1.51 1.13-0.74-0.11-1.25-0.78-1.15-1.51"/>
      <path id="Fill-50" d="m368.26 239.17c0.22-0.7 0.97-1.1 1.68-0.89s1.11 0.95 0.89 1.65c-0.21 0.7-0.96 1.1-1.66 0.89-0.71-0.22-1.12-0.95-0.91-1.65"/>
      <path id="Fill-51" d="m365.51 247.6c0.22-0.7 0.96-1.09 1.66-0.89 0.71 0.21 1.12 0.96 0.91 1.66s-0.97 1.1-1.68 0.88c-0.7-0.21-1.11-0.95-0.89-1.65"/>
      <path id="Fill-52" d="m362.36 255.87c0.22-0.7 0.97-1.1 1.68-0.89 0.71 0.22 1.12 0.95 0.89 1.65-0.21 0.7-0.95 1.1-1.66 0.89-0.71-0.22-1.12-0.95-0.91-1.65"/>
      <path id="Fill-53" d="m358.88 263.82c0.31-0.67 1.1-0.95 1.78-0.65 0.67 0.32 0.97 1.1 0.65 1.77-0.31 0.66-1.11 0.94-1.79 0.64-0.66-0.31-0.96-1.1-0.64-1.76"/>
      <path id="Fill-54" d="m354.93 271.79c0.32-0.68 1.12-0.96 1.78-0.65 0.67 0.3 0.97 1.1 0.66 1.76-0.32 0.66-1.12 0.95-1.79 0.64s-0.96-1.1-0.65-1.75"/>
      <path id="Fill-55" d="m350.64 279.52c0.3-0.67 1.1-0.95 1.78-0.64 0.67 0.31 0.96 1.09 0.65 1.76-0.31 0.66-1.11 0.95-1.79 0.64-0.67-0.31-0.96-1.1-0.64-1.76"/>
      <path id="Fill-56" d="m346.2 287.03c0.4-0.62 1.23-0.8 1.86-0.4 0.61 0.39 0.8 1.21 0.4 1.83-0.39 0.61-1.22 0.79-1.85 0.4-0.63-0.4-0.8-1.22-0.41-1.83"/>
      <path id="Fill-57" d="m341.23 294.4c0.39-0.62 1.22-0.79 1.85-0.4 0.62 0.39 0.8 1.21 0.4 1.83-0.39 0.62-1.22 0.79-1.85 0.4-0.62-0.39-0.8-1.21-0.4-1.83"/>
      <path id="Fill-58" d="m335.93 301.51c0.39-0.62 1.22-0.8 1.85-0.4 0.63 0.39 0.81 1.21 0.4 1.83-0.39 0.62-1.22 0.79-1.85 0.4-0.62-0.4-0.8-1.22-0.4-1.83"/>
      <path id="Fill-59" d="m330.38 308.22c0.48-0.55 1.32-0.62 1.89-0.14 0.56 0.48 0.61 1.32 0.14 1.87-0.48 0.55-1.33 0.62-1.89 0.14-0.57-0.48-0.63-1.32-0.14-1.87"/>
      <path id="Fill-60" d="m324.39 314.82c0.48-0.56 1.32-0.61 1.89-0.14 0.56 0.47 0.62 1.31 0.13 1.87-0.48 0.55-1.32 0.61-1.89 0.13-0.56-0.47-0.61-1.3-0.13-1.86"/>
      <path id="Fill-61" d="m318.12 321.11c0.48-0.56 1.33-0.62 1.89-0.14s0.62 1.31 0.14 1.87c-0.48 0.55-1.33 0.61-1.89 0.14-0.57-0.48-0.63-1.32-0.14-1.87"/>
      <path id="Fill-62" d="m311.59 326.7c0.56-0.48 1.41-0.42 1.89 0.14s0.42 1.4-0.15 1.87c-0.56 0.47-1.4 0.41-1.89-0.14-0.47-0.56-0.41-1.39 0.15-1.87"/>
      <path id="Fill-63" d="m304.67 332.33c0.56-0.46 1.41-0.4 1.89 0.15 0.48 0.56 0.41 1.39-0.15 1.87-0.55 0.47-1.4 0.41-1.89-0.15-0.48-0.55-0.41-1.39 0.15-1.87"/>
      <path id="Fill-64" d="m297.52 337.63c0.56-0.48 1.41-0.41 1.89 0.14 0.48 0.56 0.42 1.39-0.14 1.87s-1.41 0.41-1.89-0.14c-0.49-0.56-0.43-1.4 0.14-1.87"/>
      <path id="Fill-65" d="m290.24 342.47c0.63-0.39 1.46-0.2 1.86 0.4 0.39 0.63 0.21 1.44-0.42 1.84-0.62 0.39-1.45 0.21-1.85-0.41s-0.21-1.44 0.41-1.83"/>
      <path id="Fill-66" d="m282.58 347.08c0.63-0.39 1.45-0.21 1.85 0.41 0.39 0.62 0.21 1.44-0.41 1.82-0.62 0.4-1.45 0.21-1.85-0.4-0.4-0.62-0.21-1.44 0.41-1.83"/>
      <path id="Fill-67" d="m274.74 351.31c0.63-0.39 1.46-0.21 1.85 0.41 0.4 0.61 0.21 1.43-0.41 1.83-0.62 0.39-1.45 0.21-1.85-0.41s-0.22-1.44 0.41-1.83"/>
      <path id="Fill-68" d="m266.73 354.81c0.67-0.29 1.47 0.01 1.77 0.67 0.29 0.68-0.01 1.46-0.69 1.75-0.67 0.3-1.47 0-1.76-0.67-0.31-0.67 0-1.45 0.68-1.75"/>
      <path id="Fill-69" d="m258.45 358.24c0.68-0.3 1.48 0.01 1.77 0.67 0.31 0.67-0.01 1.46-0.68 1.75-0.67 0.3-1.47 0-1.77-0.67-0.29-0.67 0.01-1.46 0.68-1.75"/>
      <path id="Fill-70" d="m250.06 361.27c0.68-0.3 1.47 0.01 1.77 0.68 0.31 0.66-0.01 1.45-0.68 1.74-0.68 0.3-1.46 0-1.77-0.67-0.3-0.67 0.01-1.46 0.68-1.75"/>
      <path id="Fill-71" d="m241.69 363.83c0.71-0.19 1.45 0.21 1.65 0.92 0.2 0.7-0.22 1.44-0.93 1.63-0.71 0.2-1.45-0.21-1.66-0.92-0.19-0.7 0.23-1.43 0.94-1.63"/>
      <path id="Fill-72" d="m233 366.06c0.72-0.19 1.46 0.21 1.65 0.92 0.21 0.7-0.21 1.44-0.92 1.63-0.71 0.2-1.46-0.21-1.65-0.92-0.2-0.7 0.21-1.43 0.92-1.63"/>
      <path id="Fill-73" d="m224.26 367.88c0.71-0.2 1.46 0.22 1.65 0.92 0.21 0.7-0.21 1.44-0.93 1.64-0.71 0.19-1.44-0.22-1.65-0.93-0.19-0.7 0.22-1.43 0.93-1.63"/>
      <path id="Fill-74" d="m215.7 368.98c0.74-0.09 1.4 0.42 1.49 1.15 0.1 0.73-0.43 1.39-1.16 1.47-0.73 0.1-1.41-0.42-1.5-1.15-0.08-0.72 0.43-1.38 1.17-1.47"/>
      <path id="Fill-75" d="m206.78 369.9c0.74-0.09 1.4 0.42 1.49 1.15s-0.43 1.39-1.17 1.48c-0.73 0.09-1.4-0.43-1.49-1.16-0.09-0.71 0.43-1.38 1.17-1.47"/>
      <path id="Fill-76" d="m197.86 370.41c0.73-0.09 1.41 0.42 1.5 1.15 0.08 0.73-0.43 1.39-1.17 1.48-0.73 0.08-1.4-0.43-1.5-1.16-0.09-0.73 0.44-1.39 1.17-1.47"/>
      <path id="Fill-77" d="m189.09 370.47c0.74 0.01 1.33 0.62 1.31 1.35-0.01 0.73-0.62 1.31-1.37 1.3-0.73-0.01-1.32-0.62-1.3-1.35 0-0.74 0.62-1.32 1.36-1.3"/>
      <path id="Fill-78" d="m180.09 370.32c0.74 0 1.34 0.58 1.34 1.31 0 0.74-0.6 1.33-1.34 1.33-0.73 0-1.33-0.59-1.33-1.33 0-0.73 0.6-1.31 1.33-1.31"/>
      <path id="Fill-79" d="m171.18 369.73c0.74 0 1.34 0.59 1.34 1.32 0 0.74-0.6 1.33-1.34 1.33s-1.34-0.59-1.34-1.33c0-0.73 0.6-1.32 1.34-1.32"/>
      <path id="Fill-80" d="m162.47 368.72c0.74 0.1 1.24 0.78 1.13 1.5-0.1 0.72-0.78 1.23-1.51 1.13-0.74-0.11-1.24-0.78-1.14-1.5 0.11-0.73 0.79-1.23 1.52-1.13"/>
      <path id="Fill-81" d="m153.61 367.29c0.74 0.11 1.25 0.78 1.14 1.5s-0.78 1.23-1.52 1.12c-0.72-0.1-1.23-0.77-1.13-1.5 0.1-0.72 0.78-1.23 1.51-1.12"/>
      <path id="Fill-82" d="m144.88 365.46c0.73 0.1 1.24 0.77 1.14 1.5-0.11 0.72-0.79 1.23-1.52 1.13-0.73-0.11-1.25-0.78-1.14-1.51 0.1-0.72 0.78-1.23 1.52-1.12"/>
      <path id="Fill-83" d="m136.6 363.04c0.71 0.21 1.1 0.95 0.89 1.65s-0.96 1.09-1.67 0.88-1.1-0.95-0.89-1.65 0.96-1.09 1.67-0.88"/>
      <path id="Fill-84" d="m128.06 360.31c0.71 0.21 1.11 0.95 0.89 1.65-0.21 0.7-0.95 1.11-1.66 0.89-0.71-0.21-1.11-0.95-0.9-1.65s0.96-1.1 1.67-0.89"/>
      <path id="Fill-85" d="m119.7 357.21c0.71 0.21 1.11 0.95 0.89 1.65-0.21 0.71-0.95 1.1-1.67 0.89-0.7-0.21-1.11-0.95-0.9-1.65 0.22-0.7 0.97-1.11 1.68-0.89"/>
      <path id="Fill-86" d="m111.65 353.76c0.68 0.31 0.96 1.1 0.65 1.76-0.32 0.66-1.11 0.95-1.78 0.65-0.67-0.32-0.96-1.1-0.65-1.77 0.32-0.66 1.11-0.94 1.78-0.64"/>
      <path id="Fill-87" d="m103.6 349.87c0.66 0.3 0.96 1.09 0.64 1.75-0.31 0.67-1.1 0.95-1.78 0.65-0.67-0.31-0.96-1.1-0.64-1.77 0.3-0.65 1.1-0.95 1.78-0.63"/>
      <path id="Fill-96" d="m42.313 300.19c0.483 0.56 0.419 1.4-0.142 1.87-0.563 0.47-1.409 0.41-1.892-0.14-0.482-0.56-0.417-1.39 0.147-1.87 0.561-0.48 1.407-0.42 1.887 0.14"/>
      <path id="Fill-97" d="m36.961 293.12c0.484 0.56 0.417 1.4-0.147 1.87-0.562 0.48-1.408 0.41-1.89-0.14s-0.417-1.39 0.146-1.87c0.562-0.48 1.411-0.41 1.891 0.14"/>
      <path id="Fill-98" d="m32.062 285.93c0.398 0.62 0.213 1.44-0.411 1.84-0.626 0.39-1.453 0.2-1.852-0.42-0.396-0.61-0.211-1.43 0.414-1.82 0.624-0.4 1.453-0.21 1.849 0.4"/>
      <path id="Fill-99" d="m27.397 278.36c0.399 0.62 0.214 1.44-0.41 1.83-0.626 0.39-1.454 0.21-1.852-0.41-0.396-0.62-0.212-1.44 0.415-1.82 0.622-0.4 1.452-0.21 1.847 0.4"/>
      <path id="Fill-100" d="m23.117 270.62c0.399 0.61 0.213 1.43-0.414 1.82-0.626 0.4-1.455 0.21-1.852-0.41-0.397-0.61-0.211-1.43 0.415-1.82 0.625-0.4 1.455-0.21 1.851 0.41"/>
      <path id="Fill-101" d="m19.574 262.69c0.298 0.68-0.007 1.46-0.683 1.75-0.678 0.3-1.469-0.01-1.77-0.68-0.298-0.66 0.008-1.44 0.686-1.74 0.676-0.29 1.467 0.01 1.767 0.67"/>
      <path id="Fill-102" d="m16.103 254.52c0.302 0.67-0.004 1.45-0.68 1.74-0.68 0.31-1.471 0-1.77-0.67-0.3-0.66 0.006-1.45 0.685-1.75 0.675-0.29 1.467 0.01 1.765 0.68"/>
      <path id="Fill-103" d="m13.04 246.22c0.301 0.68-0.006 1.46-0.686 1.75-0.677 0.3-1.47 0-1.769-0.67-0.3-0.67 0.006-1.45 0.685-1.75 0.678-0.29 1.472 0.01 1.77 0.67"/>
      <path id="Fill-104" d="m10.444 237.95c0.202 0.7-0.214 1.44-0.9245 1.63-0.7155 0.2-1.4546-0.21-1.6547-0.92-0.2001-0.7 0.2143-1.43 0.9298-1.63 0.7107-0.19 1.4514 0.21 1.6494 0.92"/>
      <path id="Fill-105" d="m8.1879 229.37c0.2001 0.7-0.2143 1.43-0.9266 1.63-0.7139 0.2-1.4529-0.21-1.6546-0.92-0.1986-0.7 0.2159-1.43 0.9297-1.63 0.7123-0.2 1.4513 0.22 1.6515 0.92"/>
      <path id="Fill-117" d="m11.265 134.1c-0.214 0.7-0.962 1.09-1.6699 0.88-0.7091-0.21-1.1109-0.95-0.8966-1.65 0.2127-0.7 0.9612-1.09 1.6715-0.88 0.708 0.2 1.108 0.95 0.895 1.65"/>
      <path id="Fill-118" d="m14.023 125.66c-0.214 0.7-0.963 1.09-1.67 0.88-0.709-0.21-1.111-0.95-0.897-1.65 0.213-0.7 0.961-1.09 1.671-0.88 0.707 0.21 1.109 0.95 0.896 1.65"/>
      <path id="Fill-119" d="m17.164 117.4c-0.213 0.7-0.963 1.09-1.674 0.88-0.709-0.21-1.111-0.95-0.896-1.66 0.212-0.69 0.961-1.09 1.671-0.87 0.709 0.21 1.113 0.95 0.899 1.65"/>
      <path id="Fill-120" d="m20.653 109.44c-0.314 0.67-1.112 0.95-1.781 0.64-0.671-0.3-0.963-1.09-0.65-1.76 0.313-0.66 1.11-0.95 1.781-0.63 0.67 0.3 0.962 1.09 0.65 1.75"/>
      <path id="Fill-121" d="m24.597 101.48c-0.314 0.66-1.111 0.95-1.781 0.64-0.673-0.31-0.963-1.09-0.649-1.76 0.31-0.66 1.109-0.946 1.78-0.642 0.67 0.312 0.962 1.092 0.65 1.762"/>
      <path id="Fill-122" d="m28.897 93.74c-0.313 0.663-1.112 0.948-1.785 0.644-0.671-0.313-0.963-1.096-0.649-1.768 0.311-0.658 1.109-0.946 1.781-0.636 0.673 0.313 0.964 1.096 0.653 1.76"/>
      <path id="Fill-123" d="m33.327 86.232c-0.399 0.616-1.228 0.798-1.85 0.403-0.626-0.394-0.808-1.213-0.408-1.831 0.398-0.615 1.228-0.794 1.852-0.401 0.622 0.395 0.804 1.214 0.406 1.829"/>
      <path id="Fill-124" d="m38.307 78.857c-0.401 0.616-1.229 0.797-1.852 0.404-0.624-0.395-0.807-1.214-0.409-1.833 0.399-0.614 1.228-0.794 1.854-0.4 0.622 0.395 0.804 1.214 0.407 1.829"/>
      <path id="Fill-133" d="m95.099 25.774c-0.397-0.619-0.213-1.436 0.413-1.831 0.624-0.39 1.453-0.208 1.85 0.41 0.4 0.617 0.211 1.435-0.411 1.827-0.627 0.392-1.455 0.21-1.852-0.406z"/>
      <path id="Fill-134" d="m104.79 21.95c-0.62 0.392-1.45 0.209-1.86-0.409-0.39-0.618-0.21-1.438 0.42-1.831 0.62-0.392 1.45-0.209 1.85 0.409s0.21 1.439-0.41 1.831"/>
      <path id="Fill-135" d="m112.81 18.448c-0.69 0.295-1.48-0.007-1.77-0.675-0.31-0.67 0-1.452 0.68-1.748 0.67-0.296 1.46 0.006 1.77 0.677 0.29 0.667-0.01 1.45-0.68 1.746"/>
      <path id="Fill-136" d="m121.07 15.019c-0.67 0.296-1.46-0.006-1.77-0.674-0.29-0.67 0.01-1.452 0.69-1.75 0.68-0.295 1.47 0.009 1.77 0.678 0.3 0.668 0 1.45-0.69 1.746"/>
      <path id="Fill-137" d="m129.47 11.991c-0.68 0.297-1.47-0.007-1.77-0.679-0.3-0.67 0-1.4507 0.68-1.7483 0.68-0.2948 1.47 0.0074 1.77 0.6773 0.3 0.671-0.01 1.454-0.68 1.75"/>
      <path id="Fill-138" d="m137.85 9.4265c-0.72 0.198-1.46-0.2138-1.66-0.9157-0.2-0.7054 0.21-1.4374 0.93-1.6352 0.71-0.1978 1.45 0.2134 1.65 0.9188 0.2 0.7024-0.21 1.434-0.92 1.6321"/>
      <path id="Fill-139" d="m146.52 7.1965c-0.71 0.1977-1.44-0.2134-1.65-0.9158-0.2-0.7054 0.22-1.4373 0.93-1.6351s1.45 0.2134 1.65 0.9188c0.21 0.7023-0.21 1.4343-0.93 1.6321"/>
      <path id="Fill-140" d="m155.27 5.3791c-0.72 0.1977-1.46-0.215-1.66-0.9204s0.22-1.4358 0.93-1.6351c0.71-0.1963 1.45 0.2134 1.65 0.9188 0.21 0.707-0.21 1.4389-0.92 1.6367"/>
      <path id="Fill-141" d="m163.83 4.2796c-0.73 0.0904-1.41-0.4251-1.49-1.1492-0.09-0.7273 0.42-1.3892 1.16-1.4795s1.4 0.4252 1.5 1.1524c0.09 0.7242-0.44 1.3861-1.17 1.4763"/>
      <path id="Fill-142" d="m172.76 3.3577c-0.74 0.0904-1.41-0.4251-1.5-1.1493-0.09-0.7272 0.43-1.3891 1.16-1.4794 0.74-0.09031 1.41 0.4251 1.5 1.154 0.09 0.7241-0.44 1.3859-1.16 1.4747"/>
      <path id="Fill-143" d="m181.67 2.8547c-0.73 0.0903-1.4-0.4266-1.49-1.1539-0.1-0.72729 0.43-1.3892 1.16-1.4794 0.74-0.09038 1.41 0.42508 1.5 1.1524 0.08 0.7271-0.43 1.3906-1.17 1.4809"/>
      <path id="Fill-144" d="m190.44 2.7909c-0.74-0.0141-1.33-0.6199-1.31-1.3486 0.02-0.73353 0.62-1.3144 1.36-1.3004 0.75 0.01404 1.33 0.61826 1.32 1.3517-0.02 0.7288-0.63 1.3113-1.37 1.2973"/>
      <path id="Fill-133" d="m4.4805 223.03c-0.3973-0.62-0.2129-1.44 0.413-1.83 0.624-0.39 1.4527-0.21 1.8499 0.41 0.4001 0.62 0.2111 1.43-0.4111 1.83-0.6268 0.39-1.4545 0.21-1.8518-0.41z"/>
      <path id="Fill-134" d="m4.7331 214.69c-0.6268 0.39-1.4564 0.21-1.8619-0.41-0.3964-0.62-0.212-1.44 0.4148-1.83 0.6268-0.4 1.4563-0.21 1.8527 0.4 0.3964 0.62 0.212 1.44-0.4056 1.84"/>
      <path id="Fill-135" d="m3.6626 205.88c-0.6821 0.29-1.4748-0.01-1.7697-0.68-0.3042-0.67 0.0092-1.45 0.6821-1.75 0.6728-0.29 1.4656 0.01 1.7697 0.68 0.295 0.67-0.0092 1.45-0.6821 1.75"/>
      <path id="Fill-136" d="m2.9513 196.96c-0.6728 0.29-1.4656-0.01-1.7697-0.68-0.295-0.67 0.0092-1.45 0.6913-1.75 0.6729-0.29 1.4656 0.01 1.7605 0.68 0.3042 0.67 0 1.45-0.6821 1.75"/>
      <path id="Fill-137" d="m2.6652 188.05c-0.6821 0.29-1.4748-0.01-1.7698-0.68-0.30415-0.67 0.00004-1.45 0.6821-1.75 0.6729-0.3 1.4656 0.01 1.7698 0.68 0.295 0.67-0.0092 1.45-0.6821 1.75"/>
      <path id="Fill-138" d="m2.6341 179.16c-0.719 0.2-1.4564-0.21-1.6592-0.91-0.20277-0.71 0.212-1.44 0.931-1.64 0.7098-0.2 1.4472 0.22 1.6499 0.92 0.2028 0.7-0.212 1.44-0.9217 1.63"/>
      <path id="Fill-139" d="m3.1859 170.22c-0.7098 0.2-1.4472-0.21-1.65-0.91-0.2028-0.71 0.212-1.44 0.931-1.64 0.7098-0.2 1.4472 0.21 1.65 0.92 0.2027 0.7-0.2121 1.43-0.931 1.63"/>
      <path id="Fill-140" d="m4.1615 161.36c-0.719 0.19-1.4564-0.22-1.6592-0.92-0.2028-0.71 0.2212-1.44 0.931-1.64 0.7097-0.2 1.4472 0.21 1.6499 0.92 0.2028 0.71-0.212 1.44-0.9217 1.64"/>
      <path id="Fill-141" d="m5.5863 152.71c-0.7374 0.09-1.4103-0.43-1.4933-1.15-0.0922-0.73 0.424-1.39 1.1614-1.48s1.4011 0.42 1.4933 1.15c0.0922 0.72-0.4332 1.39-1.1614 1.48"/>
      <path id="Fill-142" d="m7.4662 143.94c-0.7374 0.09-1.4103-0.42-1.4933-1.15-0.0922-0.73 0.424-1.39 1.1614-1.48s1.4011 0.43 1.4933 1.16c0.0922 0.72-0.4332 1.38-1.1614 1.47"/>
      <path id="Fill-143" d="m9.7373 135.32c-0.7281 0.09-1.401-0.43-1.4932-1.16-0.0922-0.72 0.4332-1.39 1.1614-1.48 0.7375-0.09 1.4105 0.43 1.5025 1.16 0.083 0.72-0.433 1.39-1.1707 1.48"/>
      <path id="Fill-144" d="m12.255 126.78c-0.747-0.01-1.337-0.62-1.318-1.34 0.018-0.74 0.627-1.32 1.364-1.31 0.747 0.02 1.327 0.62 1.318 1.36-0.018 0.73-0.627 1.31-1.364 1.29"/>
     </g>
     <path id="path4674" fill-rule="nonzero" fill="#CDCDCD" d="m139.53 278.4l-0.02 2.36 0.14-0.08s1.64-1.04 3.22-2.67l0.13-0.13-0.13-0.13c-1.58-1.63-3.22-2.66-3.22-2.66l-0.14-0.09v0.23l0.02 2.13h-22.22l-9.31-0.01v1.04l31.53 0.01z" transform="translate(125.5 277.88) rotate(135) translate(-125.5 -277.88)"/>
     <path id="path4674" fill-rule="nonzero" fill="#CDCDCD" d="m139.53 94.4l-0.02 2.36 0.14-0.08s1.64-1.04 3.22-2.67l0.13-0.13-0.13-0.13c-1.58-1.63-3.22-2.66-3.22-2.66l-0.14-0.09v0.23l0.02 2.13h-22.22l-9.31-0.01v1.04l31.53 0.01z" transform="translate(125.5 93.88) scale(-1 1) rotate(-45) translate(-125.5 -93.88)"/>
     <path id="path4674" fill-rule="nonzero" fill="#CDCDCD" d="m316.53 188.4l-0.02 2.36 0.14-0.08s1.64-1.04 3.22-2.67l0.13-0.13-0.13-0.13c-1.58-1.63-3.22-2.66-3.22-2.66l-0.14-0.09v0.23l0.02 2.13h-22.22l-9.31-0.01v1.04l31.53 0.01z" transform="translate(302.5 187.88) scale(-1 1) rotate(180) translate(-302.5 -187.88)"/>
     <g id="containers-icon" transform="translate(119 114)">
      <polygon id="Rectangle-4" points="0.85547 36.129 64.16 0.70312 127.48 36.129 64.16 73.598 64.16 146.49 0.85547 110.04"/>
     </g>
     <g id="containers" stroke="#E95420" stroke-width="1.8" transform="translate(75 74)">
      <path id="Rectangle-4" transform="translate(112 112) rotate(45) translate(-112 -112)" d="m50.673 54.01c0.29-1.349 1.621-2.681 2.956-2.972l81.811-17.824c1.34-0.292 3.22 0.257 4.2 1.234l49.92 49.918c0.97 0.973 1.51 2.859 1.23 4.196l-17.78 81.848c-0.3 1.35-1.61 2.68-2.95 2.96l-81.503 17.42c-1.338 0.28-3.209-0.26-4.186-1.25l-49.918-49.91c-0.974-0.97-1.529-2.85-1.239-4.21l17.459-81.41z"/>
      <path id="Rectangle-4" transform="translate(112 112) rotate(45) translate(-112 -112)" d="m63.118 66.381c0.29-1.348 1.607-2.678 2.956-2.972l64.056-13.957c1.35-0.293 3.24 0.263 4.2 1.228l38.99 38.987c0.97 0.97 1.52 2.841 1.23 4.193l-13.93 64.1c-0.28 1.34-1.6 2.66-2.97 2.96l-63.78 13.63c-1.349 0.29-3.236-0.27-4.203-1.24l-38.986-38.98c-0.971-0.97-1.527-2.84-1.235-4.21l13.672-63.739z"/>
      <path id="Rectangle-4" transform="translate(112.62 112.62) rotate(45) translate(-112.62 -112.62)" d="m75.705 78.867c0.287-1.338 1.603-2.658 2.953-2.953l47.012-10.242c1.34-0.294 3.23 0.26 4.2 1.235l28.46 28.46c0.97 0.974 1.53 2.85 1.23 4.2l-10.21 47.043c-0.28 1.35-1.6 2.67-2.95 2.95l-46.839 10.02c-1.338 0.28-3.214-0.28-4.189-1.25l-28.46-28.46c-0.975-0.98-1.535-2.85-1.247-4.19l10.04-46.813z"/>
      <polyline id="Path-5" points="37.844 75.219 112.04 116.54 111.49 196.09"/>
      <path id="Path-5" transform="translate(149.21 95.381) rotate(180) translate(-149.21 -95.381)" d="m186.1 74.376l-73.78 42.014 73.78-42.014z"/>
     </g>
    </g>
   </g>
  </g>
 </g>
</svg>
